ISO-10303-21;
HEADER;
/* Generated by software containing ST-Developer
 * from STEP Tools, Inc. (www.steptools.com) 
 */

FILE_DESCRIPTION(
/* description */ (''),
/* implementation_level */ '2;1');

FILE_NAME(
/* name */ 'Digital Library FRONT.step',
/* time_stamp */ '2026-09-21T23:50:56+05:30',
/* author */ (''),
/* organization */ (''),
/* preprocessor_version */ 'ST-DEVELOPER v20.2',
/* originating_system */ 'Autodesk Translation Framework v15.15.0.0',
/* authorisation */ '');

FILE_SCHEMA (('AUTOMOTIVE_DESIGN { 1 0 10303 214 3 1 1 }'));
ENDSEC;

DATA;
#10=MECHANICAL_DESIGN_GEOMETRIC_PRESENTATION_REPRESENTATION('',(#13),#1421);
#11=SHAPE_REPRESENTATION_RELATIONSHIP('SRR','None',#1428,#12);
#12=ADVANCED_BREP_SHAPE_REPRESENTATION('',(#14),#1420);
#13=STYLED_ITEM('',(#1437),#14);
#14=MANIFOLD_SOLID_BREP('Body2',#869);
#15=FACE_BOUND('',#116,.T.);
#16=FACE_BOUND('',#117,.T.);
#17=FACE_BOUND('',#118,.T.);
#18=FACE_BOUND('',#119,.T.);
#19=FACE_BOUND('',#134,.T.);
#20=FACE_BOUND('',#140,.T.);
#21=FACE_BOUND('',#141,.T.);
#22=FACE_BOUND('',#142,.T.);
#23=FACE_BOUND('',#143,.T.);
#24=FACE_BOUND('',#148,.T.);
#25=FACE_BOUND('',#152,.T.);
#26=CIRCLE('',#890,8.5);
#27=CIRCLE('',#891,8.5);
#28=CIRCLE('',#893,8.5);
#29=CIRCLE('',#894,8.5);
#30=CIRCLE('',#904,5.);
#31=CIRCLE('',#905,5.);
#32=CIRCLE('',#906,5.);
#33=CIRCLE('',#907,5.);
#34=CIRCLE('',#917,5.);
#35=CIRCLE('',#920,5.);
#36=CIRCLE('',#923,5.);
#37=CIRCLE('',#926,5.);
#38=CIRCLE('',#929,10.);
#39=CIRCLE('',#930,10.);
#40=CIRCLE('',#933,10.);
#41=CIRCLE('',#934,10.);
#42=CIRCLE('',#935,10.);
#43=CIRCLE('',#937,10.);
#44=CIRCLE('',#940,10.);
#45=CIRCLE('',#943,10.);
#46=CYLINDRICAL_SURFACE('',#889,8.5);
#47=CYLINDRICAL_SURFACE('',#892,8.5);
#48=CYLINDRICAL_SURFACE('',#916,5.);
#49=CYLINDRICAL_SURFACE('',#919,5.);
#50=CYLINDRICAL_SURFACE('',#922,5.);
#51=CYLINDRICAL_SURFACE('',#925,5.);
#52=CYLINDRICAL_SURFACE('',#928,10.);
#53=CYLINDRICAL_SURFACE('',#936,10.);
#54=CYLINDRICAL_SURFACE('',#939,10.);
#55=CYLINDRICAL_SURFACE('',#942,10.);
#56=FACE_OUTER_BOUND('',#99,.T.);
#57=FACE_OUTER_BOUND('',#100,.T.);
#58=FACE_OUTER_BOUND('',#101,.T.);
#59=FACE_OUTER_BOUND('',#102,.T.);
#60=FACE_OUTER_BOUND('',#103,.T.);
#61=FACE_OUTER_BOUND('',#104,.T.);
#62=FACE_OUTER_BOUND('',#105,.T.);
#63=FACE_OUTER_BOUND('',#106,.T.);
#64=FACE_OUTER_BOUND('',#107,.T.);
#65=FACE_OUTER_BOUND('',#108,.T.);
#66=FACE_OUTER_BOUND('',#109,.T.);
#67=FACE_OUTER_BOUND('',#110,.T.);
#68=FACE_OUTER_BOUND('',#111,.T.);
#69=FACE_OUTER_BOUND('',#112,.T.);
#70=FACE_OUTER_BOUND('',#113,.T.);
#71=FACE_OUTER_BOUND('',#114,.T.);
#72=FACE_OUTER_BOUND('',#115,.T.);
#73=FACE_OUTER_BOUND('',#120,.T.);
#74=FACE_OUTER_BOUND('',#121,.T.);
#75=FACE_OUTER_BOUND('',#122,.T.);
#76=FACE_OUTER_BOUND('',#123,.T.);
#77=FACE_OUTER_BOUND('',#124,.T.);
#78=FACE_OUTER_BOUND('',#125,.T.);
#79=FACE_OUTER_BOUND('',#126,.T.);
#80=FACE_OUTER_BOUND('',#127,.T.);
#81=FACE_OUTER_BOUND('',#128,.T.);
#82=FACE_OUTER_BOUND('',#129,.T.);
#83=FACE_OUTER_BOUND('',#130,.T.);
#84=FACE_OUTER_BOUND('',#131,.T.);
#85=FACE_OUTER_BOUND('',#132,.T.);
#86=FACE_OUTER_BOUND('',#133,.T.);
#87=FACE_OUTER_BOUND('',#135,.T.);
#88=FACE_OUTER_BOUND('',#136,.T.);
#89=FACE_OUTER_BOUND('',#137,.T.);
#90=FACE_OUTER_BOUND('',#138,.T.);
#91=FACE_OUTER_BOUND('',#139,.T.);
#92=FACE_OUTER_BOUND('',#144,.T.);
#93=FACE_OUTER_BOUND('',#145,.T.);
#94=FACE_OUTER_BOUND('',#146,.T.);
#95=FACE_OUTER_BOUND('',#147,.T.);
#96=FACE_OUTER_BOUND('',#149,.T.);
#97=FACE_OUTER_BOUND('',#150,.T.);
#98=FACE_OUTER_BOUND('',#151,.T.);
#99=EDGE_LOOP('',(#553,#554,#555,#556));
#100=EDGE_LOOP('',(#557,#558,#559,#560));
#101=EDGE_LOOP('',(#561,#562,#563,#564));
#102=EDGE_LOOP('',(#565,#566,#567,#568,#569,#570));
#103=EDGE_LOOP('',(#571,#572,#573,#574));
#104=EDGE_LOOP('',(#575,#576,#577,#578,#579,#580));
#105=EDGE_LOOP('',(#581,#582,#583,#584));
#106=EDGE_LOOP('',(#585,#586,#587,#588));
#107=EDGE_LOOP('',(#589,#590,#591,#592));
#108=EDGE_LOOP('',(#593,#594,#595,#596));
#109=EDGE_LOOP('',(#597,#598,#599,#600));
#110=EDGE_LOOP('',(#601,#602,#603,#604));
#111=EDGE_LOOP('',(#605,#606,#607,#608));
#112=EDGE_LOOP('',(#609,#610,#611,#612));
#113=EDGE_LOOP('',(#613,#614,#615,#616));
#114=EDGE_LOOP('',(#617,#618,#619,#620));
#115=EDGE_LOOP('',(#621,#622,#623,#624,#625,#626,#627,#628));
#116=EDGE_LOOP('',(#629));
#117=EDGE_LOOP('',(#630));
#118=EDGE_LOOP('',(#631,#632,#633,#634));
#119=EDGE_LOOP('',(#635,#636,#637,#638,#639,#640,#641,#642,#643,#644,#645,
#646));
#120=EDGE_LOOP('',(#647,#648,#649,#650));
#121=EDGE_LOOP('',(#651,#652,#653,#654));
#122=EDGE_LOOP('',(#655,#656,#657,#658));
#123=EDGE_LOOP('',(#659,#660,#661,#662));
#124=EDGE_LOOP('',(#663,#664,#665,#666,#667,#668,#669,#670));
#125=EDGE_LOOP('',(#671,#672,#673,#674));
#126=EDGE_LOOP('',(#675,#676,#677,#678));
#127=EDGE_LOOP('',(#679,#680,#681,#682));
#128=EDGE_LOOP('',(#683,#684,#685,#686));
#129=EDGE_LOOP('',(#687,#688,#689,#690));
#130=EDGE_LOOP('',(#691,#692,#693,#694));
#131=EDGE_LOOP('',(#695,#696,#697,#698));
#132=EDGE_LOOP('',(#699,#700,#701,#702));
#133=EDGE_LOOP('',(#703,#704,#705,#706));
#134=EDGE_LOOP('',(#707,#708,#709,#710));
#135=EDGE_LOOP('',(#711,#712,#713,#714));
#136=EDGE_LOOP('',(#715,#716,#717,#718));
#137=EDGE_LOOP('',(#719,#720,#721,#722));
#138=EDGE_LOOP('',(#723,#724,#725,#726));
#139=EDGE_LOOP('',(#727,#728,#729,#730,#731,#732,#733,#734));
#140=EDGE_LOOP('',(#735));
#141=EDGE_LOOP('',(#736));
#142=EDGE_LOOP('',(#737,#738,#739,#740));
#143=EDGE_LOOP('',(#741,#742,#743,#744,#745,#746,#747,#748));
#144=EDGE_LOOP('',(#749,#750,#751,#752));
#145=EDGE_LOOP('',(#753,#754,#755,#756));
#146=EDGE_LOOP('',(#757,#758,#759,#760));
#147=EDGE_LOOP('',(#761,#762,#763,#764));
#148=EDGE_LOOP('',(#765,#766,#767,#768));
#149=EDGE_LOOP('',(#769,#770,#771,#772));
#150=EDGE_LOOP('',(#773,#774,#775,#776));
#151=EDGE_LOOP('',(#777,#778,#779,#780,#781,#782,#783,#784));
#152=EDGE_LOOP('',(#785,#786,#787,#788,#789,#790,#791,#792));
#153=LINE('',#1178,#253);
#154=LINE('',#1180,#254);
#155=LINE('',#1182,#255);
#156=LINE('',#1183,#256);
#157=LINE('',#1186,#257);
#158=LINE('',#1188,#258);
#159=LINE('',#1189,#259);
#160=LINE('',#1193,#260);
#161=LINE('',#1195,#261);
#162=LINE('',#1197,#262);
#163=LINE('',#1198,#263);
#164=LINE('',#1201,#264);
#165=LINE('',#1202,#265);
#166=LINE('',#1203,#266);
#167=LINE('',#1206,#267);
#168=LINE('',#1207,#268);
#169=LINE('',#1209,#269);
#170=LINE('',#1210,#270);
#171=LINE('',#1215,#271);
#172=LINE('',#1221,#272);
#173=LINE('',#1226,#273);
#174=LINE('',#1228,#274);
#175=LINE('',#1230,#275);
#176=LINE('',#1231,#276);
#177=LINE('',#1234,#277);
#178=LINE('',#1236,#278);
#179=LINE('',#1237,#279);
#180=LINE('',#1240,#280);
#181=LINE('',#1242,#281);
#182=LINE('',#1243,#282);
#183=LINE('',#1245,#283);
#184=LINE('',#1246,#284);
#185=LINE('',#1250,#285);
#186=LINE('',#1252,#286);
#187=LINE('',#1254,#287);
#188=LINE('',#1255,#288);
#189=LINE('',#1259,#289);
#190=LINE('',#1261,#290);
#191=LINE('',#1263,#291);
#192=LINE('',#1264,#292);
#193=LINE('',#1266,#293);
#194=LINE('',#1267,#294);
#195=LINE('',#1269,#295);
#196=LINE('',#1275,#296);
#197=LINE('',#1279,#297);
#198=LINE('',#1283,#298);
#199=LINE('',#1286,#299);
#200=LINE('',#1288,#300);
#201=LINE('',#1290,#301);
#202=LINE('',#1292,#302);
#203=LINE('',#1294,#303);
#204=LINE('',#1296,#304);
#205=LINE('',#1298,#305);
#206=LINE('',#1300,#306);
#207=LINE('',#1302,#307);
#208=LINE('',#1303,#308);
#209=LINE('',#1306,#309);
#210=LINE('',#1308,#310);
#211=LINE('',#1309,#311);
#212=LINE('',#1312,#312);
#213=LINE('',#1313,#313);
#214=LINE('',#1316,#314);
#215=LINE('',#1317,#315);
#216=LINE('',#1320,#316);
#217=LINE('',#1321,#317);
#218=LINE('',#1325,#318);
#219=LINE('',#1326,#319);
#220=LINE('',#1327,#320);
#221=LINE('',#1329,#321);
#222=LINE('',#1332,#322);
#223=LINE('',#1333,#323);
#224=LINE('',#1335,#324);
#225=LINE('',#1340,#325);
#226=LINE('',#1341,#326);
#227=LINE('',#1344,#327);
#228=LINE('',#1345,#328);
#229=LINE('',#1349,#329);
#230=LINE('',#1352,#330);
#231=LINE('',#1353,#331);
#232=LINE('',#1357,#332);
#233=LINE('',#1360,#333);
#234=LINE('',#1361,#334);
#235=LINE('',#1365,#335);
#236=LINE('',#1367,#336);
#237=LINE('',#1373,#337);
#238=LINE('',#1376,#338);
#239=LINE('',#1379,#339);
#240=LINE('',#1381,#340);
#241=LINE('',#1382,#341);
#242=LINE('',#1385,#342);
#243=LINE('',#1389,#343);
#244=LINE('',#1393,#344);
#245=LINE('',#1398,#345);
#246=LINE('',#1401,#346);
#247=LINE('',#1402,#347);
#248=LINE('',#1406,#348);
#249=LINE('',#1409,#349);
#250=LINE('',#1410,#350);
#251=LINE('',#1414,#351);
#252=LINE('',#1416,#352);
#253=VECTOR('',#950,10.);
#254=VECTOR('',#951,10.);
#255=VECTOR('',#952,10.);
#256=VECTOR('',#953,10.);
#257=VECTOR('',#956,10.);
#258=VECTOR('',#957,10.);
#259=VECTOR('',#958,10.);
#260=VECTOR('',#961,10.);
#261=VECTOR('',#962,10.);
#262=VECTOR('',#963,10.);
#263=VECTOR('',#964,10.);
#264=VECTOR('',#967,10.);
#265=VECTOR('',#968,10.);
#266=VECTOR('',#969,10.);
#267=VECTOR('',#972,10.);
#268=VECTOR('',#973,10.);
#269=VECTOR('',#976,10.);
#270=VECTOR('',#977,10.);
#271=VECTOR('',#982,8.5);
#272=VECTOR('',#989,8.5);
#273=VECTOR('',#994,10.);
#274=VECTOR('',#995,10.);
#275=VECTOR('',#996,10.);
#276=VECTOR('',#997,10.);
#277=VECTOR('',#1000,10.);
#278=VECTOR('',#1001,10.);
#279=VECTOR('',#1002,10.);
#280=VECTOR('',#1005,10.);
#281=VECTOR('',#1006,10.);
#282=VECTOR('',#1007,10.);
#283=VECTOR('',#1010,10.);
#284=VECTOR('',#1011,10.);
#285=VECTOR('',#1014,10.);
#286=VECTOR('',#1015,10.);
#287=VECTOR('',#1016,10.);
#288=VECTOR('',#1017,10.);
#289=VECTOR('',#1020,10.);
#290=VECTOR('',#1021,10.);
#291=VECTOR('',#1022,10.);
#292=VECTOR('',#1023,10.);
#293=VECTOR('',#1026,10.);
#294=VECTOR('',#1027,10.);
#295=VECTOR('',#1030,10.);
#296=VECTOR('',#1035,10.);
#297=VECTOR('',#1038,10.);
#298=VECTOR('',#1041,10.);
#299=VECTOR('',#1044,10.);
#300=VECTOR('',#1045,10.);
#301=VECTOR('',#1046,10.);
#302=VECTOR('',#1047,10.);
#303=VECTOR('',#1048,10.);
#304=VECTOR('',#1049,10.);
#305=VECTOR('',#1050,10.);
#306=VECTOR('',#1051,10.);
#307=VECTOR('',#1052,10.);
#308=VECTOR('',#1053,10.);
#309=VECTOR('',#1056,10.);
#310=VECTOR('',#1057,10.);
#311=VECTOR('',#1058,10.);
#312=VECTOR('',#1061,10.);
#313=VECTOR('',#1062,10.);
#314=VECTOR('',#1065,10.);
#315=VECTOR('',#1066,10.);
#316=VECTOR('',#1069,10.);
#317=VECTOR('',#1070,10.);
#318=VECTOR('',#1073,10.);
#319=VECTOR('',#1074,10.);
#320=VECTOR('',#1075,10.);
#321=VECTOR('',#1078,10.);
#322=VECTOR('',#1081,10.);
#323=VECTOR('',#1082,10.);
#324=VECTOR('',#1085,10.);
#325=VECTOR('',#1090,10.);
#326=VECTOR('',#1091,10.);
#327=VECTOR('',#1094,10.);
#328=VECTOR('',#1095,10.);
#329=VECTOR('',#1100,10.);
#330=VECTOR('',#1103,10.);
#331=VECTOR('',#1104,10.);
#332=VECTOR('',#1109,10.);
#333=VECTOR('',#1112,10.);
#334=VECTOR('',#1113,10.);
#335=VECTOR('',#1118,10.);
#336=VECTOR('',#1121,10.);
#337=VECTOR('',#1126,10.);
#338=VECTOR('',#1129,10.);
#339=VECTOR('',#1132,10.);
#340=VECTOR('',#1133,10.);
#341=VECTOR('',#1134,10.);
#342=VECTOR('',#1137,10.);
#343=VECTOR('',#1140,10.);
#344=VECTOR('',#1143,10.);
#345=VECTOR('',#1150,10.);
#346=VECTOR('',#1153,10.);
#347=VECTOR('',#1154,10.);
#348=VECTOR('',#1159,10.);
#349=VECTOR('',#1162,10.);
#350=VECTOR('',#1163,10.);
#351=VECTOR('',#1168,10.);
#352=VECTOR('',#1171,10.);
#353=VERTEX_POINT('',#1176);
#354=VERTEX_POINT('',#1177);
#355=VERTEX_POINT('',#1179);
#356=VERTEX_POINT('',#1181);
#357=VERTEX_POINT('',#1185);
#358=VERTEX_POINT('',#1187);
#359=VERTEX_POINT('',#1191);
#360=VERTEX_POINT('',#1192);
#361=VERTEX_POINT('',#1194);
#362=VERTEX_POINT('',#1196);
#363=VERTEX_POINT('',#1200);
#364=VERTEX_POINT('',#1205);
#365=VERTEX_POINT('',#1212);
#366=VERTEX_POINT('',#1214);
#367=VERTEX_POINT('',#1218);
#368=VERTEX_POINT('',#1220);
#369=VERTEX_POINT('',#1224);
#370=VERTEX_POINT('',#1225);
#371=VERTEX_POINT('',#1227);
#372=VERTEX_POINT('',#1229);
#373=VERTEX_POINT('',#1233);
#374=VERTEX_POINT('',#1235);
#375=VERTEX_POINT('',#1239);
#376=VERTEX_POINT('',#1241);
#377=VERTEX_POINT('',#1248);
#378=VERTEX_POINT('',#1249);
#379=VERTEX_POINT('',#1251);
#380=VERTEX_POINT('',#1253);
#381=VERTEX_POINT('',#1257);
#382=VERTEX_POINT('',#1258);
#383=VERTEX_POINT('',#1260);
#384=VERTEX_POINT('',#1262);
#385=VERTEX_POINT('',#1271);
#386=VERTEX_POINT('',#1272);
#387=VERTEX_POINT('',#1274);
#388=VERTEX_POINT('',#1276);
#389=VERTEX_POINT('',#1278);
#390=VERTEX_POINT('',#1280);
#391=VERTEX_POINT('',#1282);
#392=VERTEX_POINT('',#1284);
#393=VERTEX_POINT('',#1287);
#394=VERTEX_POINT('',#1289);
#395=VERTEX_POINT('',#1291);
#396=VERTEX_POINT('',#1293);
#397=VERTEX_POINT('',#1295);
#398=VERTEX_POINT('',#1297);
#399=VERTEX_POINT('',#1299);
#400=VERTEX_POINT('',#1301);
#401=VERTEX_POINT('',#1305);
#402=VERTEX_POINT('',#1307);
#403=VERTEX_POINT('',#1311);
#404=VERTEX_POINT('',#1315);
#405=VERTEX_POINT('',#1319);
#406=VERTEX_POINT('',#1323);
#407=VERTEX_POINT('',#1324);
#408=VERTEX_POINT('',#1331);
#409=VERTEX_POINT('',#1337);
#410=VERTEX_POINT('',#1338);
#411=VERTEX_POINT('',#1343);
#412=VERTEX_POINT('',#1347);
#413=VERTEX_POINT('',#1351);
#414=VERTEX_POINT('',#1355);
#415=VERTEX_POINT('',#1359);
#416=VERTEX_POINT('',#1363);
#417=VERTEX_POINT('',#1369);
#418=VERTEX_POINT('',#1370);
#419=VERTEX_POINT('',#1372);
#420=VERTEX_POINT('',#1374);
#421=VERTEX_POINT('',#1378);
#422=VERTEX_POINT('',#1380);
#423=VERTEX_POINT('',#1384);
#424=VERTEX_POINT('',#1386);
#425=VERTEX_POINT('',#1388);
#426=VERTEX_POINT('',#1390);
#427=VERTEX_POINT('',#1392);
#428=VERTEX_POINT('',#1396);
#429=VERTEX_POINT('',#1400);
#430=VERTEX_POINT('',#1404);
#431=VERTEX_POINT('',#1408);
#432=VERTEX_POINT('',#1412);
#433=EDGE_CURVE('',#353,#354,#153,.T.);
#434=EDGE_CURVE('',#353,#355,#154,.T.);
#435=EDGE_CURVE('',#356,#355,#155,.T.);
#436=EDGE_CURVE('',#354,#356,#156,.T.);
#437=EDGE_CURVE('',#357,#354,#157,.T.);
#438=EDGE_CURVE('',#358,#357,#158,.T.);
#439=EDGE_CURVE('',#353,#358,#159,.T.);
#440=EDGE_CURVE('',#359,#360,#160,.T.);
#441=EDGE_CURVE('',#359,#361,#161,.T.);
#442=EDGE_CURVE('',#362,#361,#162,.T.);
#443=EDGE_CURVE('',#360,#362,#163,.T.);
#444=EDGE_CURVE('',#363,#359,#164,.T.);
#445=EDGE_CURVE('',#363,#357,#165,.T.);
#446=EDGE_CURVE('',#361,#356,#166,.T.);
#447=EDGE_CURVE('',#364,#363,#167,.T.);
#448=EDGE_CURVE('',#364,#358,#168,.T.);
#449=EDGE_CURVE('',#360,#364,#169,.T.);
#450=EDGE_CURVE('',#355,#362,#170,.T.);
#451=EDGE_CURVE('',#365,#365,#26,.T.);
#452=EDGE_CURVE('',#365,#366,#171,.T.);
#453=EDGE_CURVE('',#366,#366,#27,.T.);
#454=EDGE_CURVE('',#367,#367,#28,.T.);
#455=EDGE_CURVE('',#367,#368,#172,.T.);
#456=EDGE_CURVE('',#368,#368,#29,.T.);
#457=EDGE_CURVE('',#369,#370,#173,.T.);
#458=EDGE_CURVE('',#369,#371,#174,.T.);
#459=EDGE_CURVE('',#372,#371,#175,.T.);
#460=EDGE_CURVE('',#370,#372,#176,.T.);
#461=EDGE_CURVE('',#373,#369,#177,.T.);
#462=EDGE_CURVE('',#373,#374,#178,.T.);
#463=EDGE_CURVE('',#371,#374,#179,.T.);
#464=EDGE_CURVE('',#375,#373,#180,.T.);
#465=EDGE_CURVE('',#375,#376,#181,.T.);
#466=EDGE_CURVE('',#374,#376,#182,.T.);
#467=EDGE_CURVE('',#370,#375,#183,.T.);
#468=EDGE_CURVE('',#376,#372,#184,.T.);
#469=EDGE_CURVE('',#377,#378,#185,.T.);
#470=EDGE_CURVE('',#377,#379,#186,.T.);
#471=EDGE_CURVE('',#380,#379,#187,.T.);
#472=EDGE_CURVE('',#378,#380,#188,.T.);
#473=EDGE_CURVE('',#381,#382,#189,.T.);
#474=EDGE_CURVE('',#381,#383,#190,.T.);
#475=EDGE_CURVE('',#384,#383,#191,.T.);
#476=EDGE_CURVE('',#382,#384,#192,.T.);
#477=EDGE_CURVE('',#382,#377,#193,.T.);
#478=EDGE_CURVE('',#379,#384,#194,.T.);
#479=EDGE_CURVE('',#383,#380,#195,.T.);
#480=EDGE_CURVE('',#385,#386,#30,.F.);
#481=EDGE_CURVE('',#386,#387,#196,.F.);
#482=EDGE_CURVE('',#387,#388,#31,.T.);
#483=EDGE_CURVE('',#388,#389,#197,.T.);
#484=EDGE_CURVE('',#389,#390,#32,.T.);
#485=EDGE_CURVE('',#390,#391,#198,.T.);
#486=EDGE_CURVE('',#391,#392,#33,.T.);
#487=EDGE_CURVE('',#392,#385,#199,.T.);
#488=EDGE_CURVE('',#378,#393,#200,.T.);
#489=EDGE_CURVE('',#393,#394,#201,.T.);
#490=EDGE_CURVE('',#394,#395,#202,.T.);
#491=EDGE_CURVE('',#395,#396,#203,.T.);
#492=EDGE_CURVE('',#396,#397,#204,.T.);
#493=EDGE_CURVE('',#397,#398,#205,.T.);
#494=EDGE_CURVE('',#398,#399,#206,.T.);
#495=EDGE_CURVE('',#399,#400,#207,.T.);
#496=EDGE_CURVE('',#400,#381,#208,.T.);
#497=EDGE_CURVE('',#401,#395,#209,.T.);
#498=EDGE_CURVE('',#402,#394,#210,.T.);
#499=EDGE_CURVE('',#401,#402,#211,.T.);
#500=EDGE_CURVE('',#403,#401,#212,.T.);
#501=EDGE_CURVE('',#403,#396,#213,.T.);
#502=EDGE_CURVE('',#404,#403,#214,.T.);
#503=EDGE_CURVE('',#404,#397,#215,.T.);
#504=EDGE_CURVE('',#405,#404,#216,.T.);
#505=EDGE_CURVE('',#398,#405,#217,.T.);
#506=EDGE_CURVE('',#406,#407,#218,.T.);
#507=EDGE_CURVE('',#406,#393,#219,.T.);
#508=EDGE_CURVE('',#407,#400,#220,.T.);
#509=EDGE_CURVE('',#402,#406,#221,.T.);
#510=EDGE_CURVE('',#408,#405,#222,.T.);
#511=EDGE_CURVE('',#408,#399,#223,.T.);
#512=EDGE_CURVE('',#407,#408,#224,.T.);
#513=EDGE_CURVE('',#409,#410,#34,.T.);
#514=EDGE_CURVE('',#386,#409,#225,.T.);
#515=EDGE_CURVE('',#410,#385,#226,.T.);
#516=EDGE_CURVE('',#411,#409,#227,.T.);
#517=EDGE_CURVE('',#411,#387,#228,.T.);
#518=EDGE_CURVE('',#412,#411,#35,.T.);
#519=EDGE_CURVE('',#388,#412,#229,.T.);
#520=EDGE_CURVE('',#413,#412,#230,.T.);
#521=EDGE_CURVE('',#413,#389,#231,.T.);
#522=EDGE_CURVE('',#414,#413,#36,.T.);
#523=EDGE_CURVE('',#390,#414,#232,.T.);
#524=EDGE_CURVE('',#415,#414,#233,.T.);
#525=EDGE_CURVE('',#415,#391,#234,.T.);
#526=EDGE_CURVE('',#416,#415,#37,.T.);
#527=EDGE_CURVE('',#392,#416,#235,.T.);
#528=EDGE_CURVE('',#410,#416,#236,.T.);
#529=EDGE_CURVE('',#417,#418,#38,.T.);
#530=EDGE_CURVE('',#418,#419,#237,.T.);
#531=EDGE_CURVE('',#419,#420,#39,.T.);
#532=EDGE_CURVE('',#420,#417,#238,.T.);
#533=EDGE_CURVE('',#420,#421,#239,.T.);
#534=EDGE_CURVE('',#422,#421,#240,.T.);
#535=EDGE_CURVE('',#417,#422,#241,.T.);
#536=EDGE_CURVE('',#423,#419,#242,.T.);
#537=EDGE_CURVE('',#424,#423,#40,.T.);
#538=EDGE_CURVE('',#425,#424,#243,.T.);
#539=EDGE_CURVE('',#426,#425,#41,.T.);
#540=EDGE_CURVE('',#427,#426,#244,.T.);
#541=EDGE_CURVE('',#421,#427,#42,.T.);
#542=EDGE_CURVE('',#428,#422,#43,.T.);
#543=EDGE_CURVE('',#427,#428,#245,.T.);
#544=EDGE_CURVE('',#429,#426,#246,.T.);
#545=EDGE_CURVE('',#428,#429,#247,.T.);
#546=EDGE_CURVE('',#430,#429,#44,.T.);
#547=EDGE_CURVE('',#425,#430,#248,.T.);
#548=EDGE_CURVE('',#431,#424,#249,.T.);
#549=EDGE_CURVE('',#430,#431,#250,.T.);
#550=EDGE_CURVE('',#432,#431,#45,.T.);
#551=EDGE_CURVE('',#423,#432,#251,.T.);
#552=EDGE_CURVE('',#432,#418,#252,.T.);
#553=ORIENTED_EDGE('',*,*,#433,.F.);
#554=ORIENTED_EDGE('',*,*,#434,.T.);
#555=ORIENTED_EDGE('',*,*,#435,.F.);
#556=ORIENTED_EDGE('',*,*,#436,.F.);
#557=ORIENTED_EDGE('',*,*,#433,.T.);
#558=ORIENTED_EDGE('',*,*,#437,.F.);
#559=ORIENTED_EDGE('',*,*,#438,.F.);
#560=ORIENTED_EDGE('',*,*,#439,.F.);
#561=ORIENTED_EDGE('',*,*,#440,.F.);
#562=ORIENTED_EDGE('',*,*,#441,.T.);
#563=ORIENTED_EDGE('',*,*,#442,.F.);
#564=ORIENTED_EDGE('',*,*,#443,.F.);
#565=ORIENTED_EDGE('',*,*,#444,.F.);
#566=ORIENTED_EDGE('',*,*,#445,.T.);
#567=ORIENTED_EDGE('',*,*,#437,.T.);
#568=ORIENTED_EDGE('',*,*,#436,.T.);
#569=ORIENTED_EDGE('',*,*,#446,.F.);
#570=ORIENTED_EDGE('',*,*,#441,.F.);
#571=ORIENTED_EDGE('',*,*,#447,.F.);
#572=ORIENTED_EDGE('',*,*,#448,.T.);
#573=ORIENTED_EDGE('',*,*,#438,.T.);
#574=ORIENTED_EDGE('',*,*,#445,.F.);
#575=ORIENTED_EDGE('',*,*,#449,.F.);
#576=ORIENTED_EDGE('',*,*,#443,.T.);
#577=ORIENTED_EDGE('',*,*,#450,.F.);
#578=ORIENTED_EDGE('',*,*,#434,.F.);
#579=ORIENTED_EDGE('',*,*,#439,.T.);
#580=ORIENTED_EDGE('',*,*,#448,.F.);
#581=ORIENTED_EDGE('',*,*,#451,.F.);
#582=ORIENTED_EDGE('',*,*,#452,.T.);
#583=ORIENTED_EDGE('',*,*,#453,.F.);
#584=ORIENTED_EDGE('',*,*,#452,.F.);
#585=ORIENTED_EDGE('',*,*,#454,.F.);
#586=ORIENTED_EDGE('',*,*,#455,.T.);
#587=ORIENTED_EDGE('',*,*,#456,.F.);
#588=ORIENTED_EDGE('',*,*,#455,.F.);
#589=ORIENTED_EDGE('',*,*,#457,.F.);
#590=ORIENTED_EDGE('',*,*,#458,.T.);
#591=ORIENTED_EDGE('',*,*,#459,.F.);
#592=ORIENTED_EDGE('',*,*,#460,.F.);
#593=ORIENTED_EDGE('',*,*,#461,.F.);
#594=ORIENTED_EDGE('',*,*,#462,.T.);
#595=ORIENTED_EDGE('',*,*,#463,.F.);
#596=ORIENTED_EDGE('',*,*,#458,.F.);
#597=ORIENTED_EDGE('',*,*,#464,.F.);
#598=ORIENTED_EDGE('',*,*,#465,.T.);
#599=ORIENTED_EDGE('',*,*,#466,.F.);
#600=ORIENTED_EDGE('',*,*,#462,.F.);
#601=ORIENTED_EDGE('',*,*,#467,.F.);
#602=ORIENTED_EDGE('',*,*,#460,.T.);
#603=ORIENTED_EDGE('',*,*,#468,.F.);
#604=ORIENTED_EDGE('',*,*,#465,.F.);
#605=ORIENTED_EDGE('',*,*,#469,.F.);
#606=ORIENTED_EDGE('',*,*,#470,.T.);
#607=ORIENTED_EDGE('',*,*,#471,.F.);
#608=ORIENTED_EDGE('',*,*,#472,.F.);
#609=ORIENTED_EDGE('',*,*,#473,.F.);
#610=ORIENTED_EDGE('',*,*,#474,.T.);
#611=ORIENTED_EDGE('',*,*,#475,.F.);
#612=ORIENTED_EDGE('',*,*,#476,.F.);
#613=ORIENTED_EDGE('',*,*,#477,.F.);
#614=ORIENTED_EDGE('',*,*,#476,.T.);
#615=ORIENTED_EDGE('',*,*,#478,.F.);
#616=ORIENTED_EDGE('',*,*,#470,.F.);
#617=ORIENTED_EDGE('',*,*,#478,.T.);
#618=ORIENTED_EDGE('',*,*,#475,.T.);
#619=ORIENTED_EDGE('',*,*,#479,.T.);
#620=ORIENTED_EDGE('',*,*,#471,.T.);
#621=ORIENTED_EDGE('',*,*,#480,.T.);
#622=ORIENTED_EDGE('',*,*,#481,.T.);
#623=ORIENTED_EDGE('',*,*,#482,.T.);
#624=ORIENTED_EDGE('',*,*,#483,.T.);
#625=ORIENTED_EDGE('',*,*,#484,.T.);
#626=ORIENTED_EDGE('',*,*,#485,.T.);
#627=ORIENTED_EDGE('',*,*,#486,.T.);
#628=ORIENTED_EDGE('',*,*,#487,.T.);
#629=ORIENTED_EDGE('',*,*,#453,.T.);
#630=ORIENTED_EDGE('',*,*,#456,.T.);
#631=ORIENTED_EDGE('',*,*,#459,.T.);
#632=ORIENTED_EDGE('',*,*,#463,.T.);
#633=ORIENTED_EDGE('',*,*,#466,.T.);
#634=ORIENTED_EDGE('',*,*,#468,.T.);
#635=ORIENTED_EDGE('',*,*,#473,.T.);
#636=ORIENTED_EDGE('',*,*,#477,.T.);
#637=ORIENTED_EDGE('',*,*,#469,.T.);
#638=ORIENTED_EDGE('',*,*,#488,.T.);
#639=ORIENTED_EDGE('',*,*,#489,.T.);
#640=ORIENTED_EDGE('',*,*,#490,.T.);
#641=ORIENTED_EDGE('',*,*,#491,.T.);
#642=ORIENTED_EDGE('',*,*,#492,.T.);
#643=ORIENTED_EDGE('',*,*,#493,.T.);
#644=ORIENTED_EDGE('',*,*,#494,.T.);
#645=ORIENTED_EDGE('',*,*,#495,.T.);
#646=ORIENTED_EDGE('',*,*,#496,.T.);
#647=ORIENTED_EDGE('',*,*,#497,.T.);
#648=ORIENTED_EDGE('',*,*,#490,.F.);
#649=ORIENTED_EDGE('',*,*,#498,.F.);
#650=ORIENTED_EDGE('',*,*,#499,.F.);
#651=ORIENTED_EDGE('',*,*,#500,.F.);
#652=ORIENTED_EDGE('',*,*,#501,.T.);
#653=ORIENTED_EDGE('',*,*,#491,.F.);
#654=ORIENTED_EDGE('',*,*,#497,.F.);
#655=ORIENTED_EDGE('',*,*,#502,.F.);
#656=ORIENTED_EDGE('',*,*,#503,.T.);
#657=ORIENTED_EDGE('',*,*,#492,.F.);
#658=ORIENTED_EDGE('',*,*,#501,.F.);
#659=ORIENTED_EDGE('',*,*,#504,.F.);
#660=ORIENTED_EDGE('',*,*,#505,.F.);
#661=ORIENTED_EDGE('',*,*,#493,.F.);
#662=ORIENTED_EDGE('',*,*,#503,.F.);
#663=ORIENTED_EDGE('',*,*,#506,.F.);
#664=ORIENTED_EDGE('',*,*,#507,.T.);
#665=ORIENTED_EDGE('',*,*,#488,.F.);
#666=ORIENTED_EDGE('',*,*,#472,.T.);
#667=ORIENTED_EDGE('',*,*,#479,.F.);
#668=ORIENTED_EDGE('',*,*,#474,.F.);
#669=ORIENTED_EDGE('',*,*,#496,.F.);
#670=ORIENTED_EDGE('',*,*,#508,.F.);
#671=ORIENTED_EDGE('',*,*,#509,.F.);
#672=ORIENTED_EDGE('',*,*,#498,.T.);
#673=ORIENTED_EDGE('',*,*,#489,.F.);
#674=ORIENTED_EDGE('',*,*,#507,.F.);
#675=ORIENTED_EDGE('',*,*,#505,.T.);
#676=ORIENTED_EDGE('',*,*,#510,.F.);
#677=ORIENTED_EDGE('',*,*,#511,.T.);
#678=ORIENTED_EDGE('',*,*,#494,.F.);
#679=ORIENTED_EDGE('',*,*,#512,.F.);
#680=ORIENTED_EDGE('',*,*,#508,.T.);
#681=ORIENTED_EDGE('',*,*,#495,.F.);
#682=ORIENTED_EDGE('',*,*,#511,.F.);
#683=ORIENTED_EDGE('',*,*,#513,.F.);
#684=ORIENTED_EDGE('',*,*,#514,.F.);
#685=ORIENTED_EDGE('',*,*,#480,.F.);
#686=ORIENTED_EDGE('',*,*,#515,.F.);
#687=ORIENTED_EDGE('',*,*,#514,.T.);
#688=ORIENTED_EDGE('',*,*,#516,.F.);
#689=ORIENTED_EDGE('',*,*,#517,.T.);
#690=ORIENTED_EDGE('',*,*,#481,.F.);
#691=ORIENTED_EDGE('',*,*,#518,.F.);
#692=ORIENTED_EDGE('',*,*,#519,.F.);
#693=ORIENTED_EDGE('',*,*,#482,.F.);
#694=ORIENTED_EDGE('',*,*,#517,.F.);
#695=ORIENTED_EDGE('',*,*,#519,.T.);
#696=ORIENTED_EDGE('',*,*,#520,.F.);
#697=ORIENTED_EDGE('',*,*,#521,.T.);
#698=ORIENTED_EDGE('',*,*,#483,.F.);
#699=ORIENTED_EDGE('',*,*,#522,.F.);
#700=ORIENTED_EDGE('',*,*,#523,.F.);
#701=ORIENTED_EDGE('',*,*,#484,.F.);
#702=ORIENTED_EDGE('',*,*,#521,.F.);
#703=ORIENTED_EDGE('',*,*,#523,.T.);
#704=ORIENTED_EDGE('',*,*,#524,.F.);
#705=ORIENTED_EDGE('',*,*,#525,.T.);
#706=ORIENTED_EDGE('',*,*,#485,.F.);
#707=ORIENTED_EDGE('',*,*,#440,.T.);
#708=ORIENTED_EDGE('',*,*,#449,.T.);
#709=ORIENTED_EDGE('',*,*,#447,.T.);
#710=ORIENTED_EDGE('',*,*,#444,.T.);
#711=ORIENTED_EDGE('',*,*,#526,.F.);
#712=ORIENTED_EDGE('',*,*,#527,.F.);
#713=ORIENTED_EDGE('',*,*,#486,.F.);
#714=ORIENTED_EDGE('',*,*,#525,.F.);
#715=ORIENTED_EDGE('',*,*,#515,.T.);
#716=ORIENTED_EDGE('',*,*,#487,.F.);
#717=ORIENTED_EDGE('',*,*,#527,.T.);
#718=ORIENTED_EDGE('',*,*,#528,.F.);
#719=ORIENTED_EDGE('',*,*,#529,.T.);
#720=ORIENTED_EDGE('',*,*,#530,.T.);
#721=ORIENTED_EDGE('',*,*,#531,.T.);
#722=ORIENTED_EDGE('',*,*,#532,.T.);
#723=ORIENTED_EDGE('',*,*,#532,.F.);
#724=ORIENTED_EDGE('',*,*,#533,.T.);
#725=ORIENTED_EDGE('',*,*,#534,.F.);
#726=ORIENTED_EDGE('',*,*,#535,.F.);
#727=ORIENTED_EDGE('',*,*,#531,.F.);
#728=ORIENTED_EDGE('',*,*,#536,.F.);
#729=ORIENTED_EDGE('',*,*,#537,.F.);
#730=ORIENTED_EDGE('',*,*,#538,.F.);
#731=ORIENTED_EDGE('',*,*,#539,.F.);
#732=ORIENTED_EDGE('',*,*,#540,.F.);
#733=ORIENTED_EDGE('',*,*,#541,.F.);
#734=ORIENTED_EDGE('',*,*,#533,.F.);
#735=ORIENTED_EDGE('',*,*,#451,.T.);
#736=ORIENTED_EDGE('',*,*,#454,.T.);
#737=ORIENTED_EDGE('',*,*,#457,.T.);
#738=ORIENTED_EDGE('',*,*,#467,.T.);
#739=ORIENTED_EDGE('',*,*,#464,.T.);
#740=ORIENTED_EDGE('',*,*,#461,.T.);
#741=ORIENTED_EDGE('',*,*,#504,.T.);
#742=ORIENTED_EDGE('',*,*,#502,.T.);
#743=ORIENTED_EDGE('',*,*,#500,.T.);
#744=ORIENTED_EDGE('',*,*,#499,.T.);
#745=ORIENTED_EDGE('',*,*,#509,.T.);
#746=ORIENTED_EDGE('',*,*,#506,.T.);
#747=ORIENTED_EDGE('',*,*,#512,.T.);
#748=ORIENTED_EDGE('',*,*,#510,.T.);
#749=ORIENTED_EDGE('',*,*,#542,.T.);
#750=ORIENTED_EDGE('',*,*,#534,.T.);
#751=ORIENTED_EDGE('',*,*,#541,.T.);
#752=ORIENTED_EDGE('',*,*,#543,.T.);
#753=ORIENTED_EDGE('',*,*,#543,.F.);
#754=ORIENTED_EDGE('',*,*,#540,.T.);
#755=ORIENTED_EDGE('',*,*,#544,.F.);
#756=ORIENTED_EDGE('',*,*,#545,.F.);
#757=ORIENTED_EDGE('',*,*,#546,.T.);
#758=ORIENTED_EDGE('',*,*,#544,.T.);
#759=ORIENTED_EDGE('',*,*,#539,.T.);
#760=ORIENTED_EDGE('',*,*,#547,.T.);
#761=ORIENTED_EDGE('',*,*,#547,.F.);
#762=ORIENTED_EDGE('',*,*,#538,.T.);
#763=ORIENTED_EDGE('',*,*,#548,.F.);
#764=ORIENTED_EDGE('',*,*,#549,.F.);
#765=ORIENTED_EDGE('',*,*,#442,.T.);
#766=ORIENTED_EDGE('',*,*,#446,.T.);
#767=ORIENTED_EDGE('',*,*,#435,.T.);
#768=ORIENTED_EDGE('',*,*,#450,.T.);
#769=ORIENTED_EDGE('',*,*,#550,.T.);
#770=ORIENTED_EDGE('',*,*,#548,.T.);
#771=ORIENTED_EDGE('',*,*,#537,.T.);
#772=ORIENTED_EDGE('',*,*,#551,.T.);
#773=ORIENTED_EDGE('',*,*,#530,.F.);
#774=ORIENTED_EDGE('',*,*,#552,.F.);
#775=ORIENTED_EDGE('',*,*,#551,.F.);
#776=ORIENTED_EDGE('',*,*,#536,.T.);
#777=ORIENTED_EDGE('',*,*,#529,.F.);
#778=ORIENTED_EDGE('',*,*,#535,.T.);
#779=ORIENTED_EDGE('',*,*,#542,.F.);
#780=ORIENTED_EDGE('',*,*,#545,.T.);
#781=ORIENTED_EDGE('',*,*,#546,.F.);
#782=ORIENTED_EDGE('',*,*,#549,.T.);
#783=ORIENTED_EDGE('',*,*,#550,.F.);
#784=ORIENTED_EDGE('',*,*,#552,.T.);
#785=ORIENTED_EDGE('',*,*,#513,.T.);
#786=ORIENTED_EDGE('',*,*,#528,.T.);
#787=ORIENTED_EDGE('',*,*,#526,.T.);
#788=ORIENTED_EDGE('',*,*,#524,.T.);
#789=ORIENTED_EDGE('',*,*,#522,.T.);
#790=ORIENTED_EDGE('',*,*,#520,.T.);
#791=ORIENTED_EDGE('',*,*,#518,.T.);
#792=ORIENTED_EDGE('',*,*,#516,.T.);
#793=PLANE('',#883);
#794=PLANE('',#884);
#795=PLANE('',#885);
#796=PLANE('',#886);
#797=PLANE('',#887);
#798=PLANE('',#888);
#799=PLANE('',#895);
#800=PLANE('',#896);
#801=PLANE('',#897);
#802=PLANE('',#898);
#803=PLANE('',#899);
#804=PLANE('',#900);
#805=PLANE('',#901);
#806=PLANE('',#902);
#807=PLANE('',#903);
#808=PLANE('',#908);
#809=PLANE('',#909);
#810=PLANE('',#910);
#811=PLANE('',#911);
#812=PLANE('',#912);
#813=PLANE('',#913);
#814=PLANE('',#914);
#815=PLANE('',#915);
#816=PLANE('',#918);
#817=PLANE('',#921);
#818=PLANE('',#924);
#819=PLANE('',#927);
#820=PLANE('',#931);
#821=PLANE('',#932);
#822=PLANE('',#938);
#823=PLANE('',#941);
#824=PLANE('',#944);
#825=PLANE('',#945);
#826=ADVANCED_FACE('',(#56),#793,.F.);
#827=ADVANCED_FACE('',(#57),#794,.F.);
#828=ADVANCED_FACE('',(#58),#795,.F.);
#829=ADVANCED_FACE('',(#59),#796,.F.);
#830=ADVANCED_FACE('',(#60),#797,.F.);
#831=ADVANCED_FACE('',(#61),#798,.F.);
#832=ADVANCED_FACE('',(#62),#46,.F.);
#833=ADVANCED_FACE('',(#63),#47,.F.);
#834=ADVANCED_FACE('',(#64),#799,.F.);
#835=ADVANCED_FACE('',(#65),#800,.F.);
#836=ADVANCED_FACE('',(#66),#801,.F.);
#837=ADVANCED_FACE('',(#67),#802,.F.);
#838=ADVANCED_FACE('',(#68),#803,.T.);
#839=ADVANCED_FACE('',(#69),#804,.T.);
#840=ADVANCED_FACE('',(#70),#805,.T.);
#841=ADVANCED_FACE('',(#71),#806,.T.);
#842=ADVANCED_FACE('',(#72,#15,#16,#17,#18),#807,.T.);
#843=ADVANCED_FACE('',(#73),#808,.F.);
#844=ADVANCED_FACE('',(#74),#809,.F.);
#845=ADVANCED_FACE('',(#75),#810,.F.);
#846=ADVANCED_FACE('',(#76),#811,.F.);
#847=ADVANCED_FACE('',(#77),#812,.F.);
#848=ADVANCED_FACE('',(#78),#813,.F.);
#849=ADVANCED_FACE('',(#79),#814,.F.);
#850=ADVANCED_FACE('',(#80),#815,.F.);
#851=ADVANCED_FACE('',(#81),#48,.F.);
#852=ADVANCED_FACE('',(#82),#816,.F.);
#853=ADVANCED_FACE('',(#83),#49,.F.);
#854=ADVANCED_FACE('',(#84),#817,.F.);
#855=ADVANCED_FACE('',(#85),#50,.F.);
#856=ADVANCED_FACE('',(#86,#19),#818,.F.);
#857=ADVANCED_FACE('',(#87),#51,.F.);
#858=ADVANCED_FACE('',(#88),#819,.F.);
#859=ADVANCED_FACE('',(#89),#52,.T.);
#860=ADVANCED_FACE('',(#90),#820,.T.);
#861=ADVANCED_FACE('',(#91,#20,#21,#22,#23),#821,.F.);
#862=ADVANCED_FACE('',(#92),#53,.T.);
#863=ADVANCED_FACE('',(#93),#822,.T.);
#864=ADVANCED_FACE('',(#94),#54,.T.);
#865=ADVANCED_FACE('',(#95,#24),#823,.T.);
#866=ADVANCED_FACE('',(#96),#55,.T.);
#867=ADVANCED_FACE('',(#97),#824,.T.);
#868=ADVANCED_FACE('',(#98,#25),#825,.T.);
#869=CLOSED_SHELL('',(#826,#827,#828,#829,#830,#831,#832,#833,#834,#835,
#836,#837,#838,#839,#840,#841,#842,#843,#844,#845,#846,#847,#848,#849,#850,
#851,#852,#853,#854,#855,#856,#857,#858,#859,#860,#861,#862,#863,#864,#865,
#866,#867,#868));
#870=DERIVED_UNIT_ELEMENT(#872,1.);
#871=DERIVED_UNIT_ELEMENT(#1423,-3.);
#872=(
MASS_UNIT()
NAMED_UNIT(*)
SI_UNIT(.KILO.,.GRAM.)
);
#873=DERIVED_UNIT((#870,#871));
#874=MEASURE_REPRESENTATION_ITEM('density measure',
POSITIVE_RATIO_MEASURE(7850.),#873);
#875=PROPERTY_DEFINITION_REPRESENTATION(#880,#877);
#876=PROPERTY_DEFINITION_REPRESENTATION(#881,#878);
#877=REPRESENTATION('material name',(#879),#1420);
#878=REPRESENTATION('density',(#874),#1420);
#879=DESCRIPTIVE_REPRESENTATION_ITEM('Steel','Steel');
#880=PROPERTY_DEFINITION('material property','material name',#1430);
#881=PROPERTY_DEFINITION('material property','density of part',#1430);
#882=AXIS2_PLACEMENT_3D('',#1174,#946,#947);
#883=AXIS2_PLACEMENT_3D('',#1175,#948,#949);
#884=AXIS2_PLACEMENT_3D('',#1184,#954,#955);
#885=AXIS2_PLACEMENT_3D('',#1190,#959,#960);
#886=AXIS2_PLACEMENT_3D('',#1199,#965,#966);
#887=AXIS2_PLACEMENT_3D('',#1204,#970,#971);
#888=AXIS2_PLACEMENT_3D('',#1208,#974,#975);
#889=AXIS2_PLACEMENT_3D('',#1211,#978,#979);
#890=AXIS2_PLACEMENT_3D('',#1213,#980,#981);
#891=AXIS2_PLACEMENT_3D('',#1216,#983,#984);
#892=AXIS2_PLACEMENT_3D('',#1217,#985,#986);
#893=AXIS2_PLACEMENT_3D('',#1219,#987,#988);
#894=AXIS2_PLACEMENT_3D('',#1222,#990,#991);
#895=AXIS2_PLACEMENT_3D('',#1223,#992,#993);
#896=AXIS2_PLACEMENT_3D('',#1232,#998,#999);
#897=AXIS2_PLACEMENT_3D('',#1238,#1003,#1004);
#898=AXIS2_PLACEMENT_3D('',#1244,#1008,#1009);
#899=AXIS2_PLACEMENT_3D('',#1247,#1012,#1013);
#900=AXIS2_PLACEMENT_3D('',#1256,#1018,#1019);
#901=AXIS2_PLACEMENT_3D('',#1265,#1024,#1025);
#902=AXIS2_PLACEMENT_3D('',#1268,#1028,#1029);
#903=AXIS2_PLACEMENT_3D('',#1270,#1031,#1032);
#904=AXIS2_PLACEMENT_3D('',#1273,#1033,#1034);
#905=AXIS2_PLACEMENT_3D('',#1277,#1036,#1037);
#906=AXIS2_PLACEMENT_3D('',#1281,#1039,#1040);
#907=AXIS2_PLACEMENT_3D('',#1285,#1042,#1043);
#908=AXIS2_PLACEMENT_3D('',#1304,#1054,#1055);
#909=AXIS2_PLACEMENT_3D('',#1310,#1059,#1060);
#910=AXIS2_PLACEMENT_3D('',#1314,#1063,#1064);
#911=AXIS2_PLACEMENT_3D('',#1318,#1067,#1068);
#912=AXIS2_PLACEMENT_3D('',#1322,#1071,#1072);
#913=AXIS2_PLACEMENT_3D('',#1328,#1076,#1077);
#914=AXIS2_PLACEMENT_3D('',#1330,#1079,#1080);
#915=AXIS2_PLACEMENT_3D('',#1334,#1083,#1084);
#916=AXIS2_PLACEMENT_3D('',#1336,#1086,#1087);
#917=AXIS2_PLACEMENT_3D('',#1339,#1088,#1089);
#918=AXIS2_PLACEMENT_3D('',#1342,#1092,#1093);
#919=AXIS2_PLACEMENT_3D('',#1346,#1096,#1097);
#920=AXIS2_PLACEMENT_3D('',#1348,#1098,#1099);
#921=AXIS2_PLACEMENT_3D('',#1350,#1101,#1102);
#922=AXIS2_PLACEMENT_3D('',#1354,#1105,#1106);
#923=AXIS2_PLACEMENT_3D('',#1356,#1107,#1108);
#924=AXIS2_PLACEMENT_3D('',#1358,#1110,#1111);
#925=AXIS2_PLACEMENT_3D('',#1362,#1114,#1115);
#926=AXIS2_PLACEMENT_3D('',#1364,#1116,#1117);
#927=AXIS2_PLACEMENT_3D('',#1366,#1119,#1120);
#928=AXIS2_PLACEMENT_3D('',#1368,#1122,#1123);
#929=AXIS2_PLACEMENT_3D('',#1371,#1124,#1125);
#930=AXIS2_PLACEMENT_3D('',#1375,#1127,#1128);
#931=AXIS2_PLACEMENT_3D('',#1377,#1130,#1131);
#932=AXIS2_PLACEMENT_3D('',#1383,#1135,#1136);
#933=AXIS2_PLACEMENT_3D('',#1387,#1138,#1139);
#934=AXIS2_PLACEMENT_3D('',#1391,#1141,#1142);
#935=AXIS2_PLACEMENT_3D('',#1394,#1144,#1145);
#936=AXIS2_PLACEMENT_3D('',#1395,#1146,#1147);
#937=AXIS2_PLACEMENT_3D('',#1397,#1148,#1149);
#938=AXIS2_PLACEMENT_3D('',#1399,#1151,#1152);
#939=AXIS2_PLACEMENT_3D('',#1403,#1155,#1156);
#940=AXIS2_PLACEMENT_3D('',#1405,#1157,#1158);
#941=AXIS2_PLACEMENT_3D('',#1407,#1160,#1161);
#942=AXIS2_PLACEMENT_3D('',#1411,#1164,#1165);
#943=AXIS2_PLACEMENT_3D('',#1413,#1166,#1167);
#944=AXIS2_PLACEMENT_3D('',#1415,#1169,#1170);
#945=AXIS2_PLACEMENT_3D('',#1417,#1172,#1173);
#946=DIRECTION('axis',(0.,0.,1.));
#947=DIRECTION('refdir',(1.,0.,0.));
#948=DIRECTION('center_axis',(0.,0.,1.));
#949=DIRECTION('ref_axis',(0.,-1.,0.));
#950=DIRECTION('',(0.,-1.,0.));
#951=DIRECTION('',(1.,0.,0.));
#952=DIRECTION('',(0.,1.,0.));
#953=DIRECTION('',(1.,0.,0.));
#954=DIRECTION('center_axis',(1.,0.,0.));
#955=DIRECTION('ref_axis',(0.,0.,-1.));
#956=DIRECTION('',(0.,0.,-1.));
#957=DIRECTION('',(0.,-1.,0.));
#958=DIRECTION('',(0.,0.,1.));
#959=DIRECTION('center_axis',(0.,0.,-1.));
#960=DIRECTION('ref_axis',(0.,1.,0.));
#961=DIRECTION('',(0.,1.,0.));
#962=DIRECTION('',(1.,0.,0.));
#963=DIRECTION('',(0.,-1.,0.));
#964=DIRECTION('',(1.,0.,0.));
#965=DIRECTION('center_axis',(0.,-1.,0.));
#966=DIRECTION('ref_axis',(0.,0.,-1.));
#967=DIRECTION('',(0.,0.,-1.));
#968=DIRECTION('',(1.,0.,0.));
#969=DIRECTION('',(0.,0.,1.));
#970=DIRECTION('center_axis',(0.,0.,1.));
#971=DIRECTION('ref_axis',(0.,-1.,0.));
#972=DIRECTION('',(0.,-1.,0.));
#973=DIRECTION('',(1.,0.,0.));
#974=DIRECTION('center_axis',(0.,1.,0.));
#975=DIRECTION('ref_axis',(0.,0.,1.));
#976=DIRECTION('',(0.,0.,1.));
#977=DIRECTION('',(0.,0.,-1.));
#978=DIRECTION('center_axis',(0.,-1.,-2.22044604925031E-16));
#979=DIRECTION('ref_axis',(0.,-2.22044604925031E-16,1.));
#980=DIRECTION('center_axis',(0.,-1.,-2.22044604925031E-16));
#981=DIRECTION('ref_axis',(0.,-2.22044604925031E-16,1.));
#982=DIRECTION('',(0.,-1.,-2.22044604925031E-16));
#983=DIRECTION('center_axis',(0.,1.,2.22044604925031E-16));
#984=DIRECTION('ref_axis',(0.,-2.22044604925031E-16,1.));
#985=DIRECTION('center_axis',(0.,-1.,-2.22044604925031E-16));
#986=DIRECTION('ref_axis',(0.,-2.22044604925031E-16,1.));
#987=DIRECTION('center_axis',(0.,-1.,-2.22044604925031E-16));
#988=DIRECTION('ref_axis',(0.,-2.22044604925031E-16,1.));
#989=DIRECTION('',(0.,-1.,-2.22044604925031E-16));
#990=DIRECTION('center_axis',(0.,1.,2.22044604925031E-16));
#991=DIRECTION('ref_axis',(0.,-2.22044604925031E-16,1.));
#992=DIRECTION('center_axis',(0.,0.,-1.));
#993=DIRECTION('ref_axis',(1.,0.,0.));
#994=DIRECTION('',(1.,0.,0.));
#995=DIRECTION('',(0.,-1.,0.));
#996=DIRECTION('',(-1.,0.,0.));
#997=DIRECTION('',(0.,-1.,0.));
#998=DIRECTION('center_axis',(-1.,0.,-1.10059283729879E-16));
#999=DIRECTION('ref_axis',(1.10059283729879E-16,0.,-1.));
#1000=DIRECTION('',(1.10059283729879E-16,2.22044604925031E-16,-1.));
#1001=DIRECTION('',(0.,-1.,0.));
#1002=DIRECTION('',(-1.10059283729879E-16,-2.22044604925031E-16,1.));
#1003=DIRECTION('center_axis',(0.,0.,1.));
#1004=DIRECTION('ref_axis',(-1.,0.,0.));
#1005=DIRECTION('',(-1.,0.,0.));
#1006=DIRECTION('',(0.,-1.,0.));
#1007=DIRECTION('',(1.,0.,0.));
#1008=DIRECTION('center_axis',(1.,0.,0.));
#1009=DIRECTION('ref_axis',(0.,0.,1.));
#1010=DIRECTION('',(0.,-2.22044604925031E-16,1.));
#1011=DIRECTION('',(0.,2.22044604925031E-16,-1.));
#1012=DIRECTION('center_axis',(-1.,0.,0.));
#1013=DIRECTION('ref_axis',(0.,0.,-1.));
#1014=DIRECTION('',(0.,-2.22044604925031E-16,1.));
#1015=DIRECTION('',(0.,-1.,0.));
#1016=DIRECTION('',(0.,0.,-1.));
#1017=DIRECTION('',(0.,-1.,0.));
#1018=DIRECTION('center_axis',(1.,0.,0.));
#1019=DIRECTION('ref_axis',(0.,0.,1.));
#1020=DIRECTION('',(0.,2.22044604925031E-16,-1.));
#1021=DIRECTION('',(0.,-1.,0.));
#1022=DIRECTION('',(0.,0.,1.));
#1023=DIRECTION('',(0.,-1.,0.));
#1024=DIRECTION('center_axis',(0.,0.,-1.));
#1025=DIRECTION('ref_axis',(1.,0.,0.));
#1026=DIRECTION('',(-1.,0.,0.));
#1027=DIRECTION('',(1.,0.,0.));
#1028=DIRECTION('center_axis',(0.,-1.,0.));
#1029=DIRECTION('ref_axis',(0.,0.,-1.));
#1030=DIRECTION('',(-1.,0.,0.));
#1031=DIRECTION('center_axis',(0.,-1.,-2.22044604925031E-16));
#1032=DIRECTION('ref_axis',(1.,0.,0.));
#1033=DIRECTION('center_axis',(0.,1.,2.22044604925031E-16));
#1034=DIRECTION('ref_axis',(-0.707106781186547,0.,0.707106781186547));
#1035=DIRECTION('',(0.,-2.22044604925031E-16,1.));
#1036=DIRECTION('center_axis',(0.,-1.,-2.22044604925031E-16));
#1037=DIRECTION('ref_axis',(-0.707106781186547,0.,-0.707106781186547));
#1038=DIRECTION('',(1.,0.,0.));
#1039=DIRECTION('center_axis',(0.,-1.,-2.22044604925031E-16));
#1040=DIRECTION('ref_axis',(0.707106781186547,0.,-0.707106781186547));
#1041=DIRECTION('',(0.,-2.22044604925031E-16,1.));
#1042=DIRECTION('center_axis',(0.,-1.,-2.22044604925031E-16));
#1043=DIRECTION('ref_axis',(0.707106781186547,0.,0.707106781186547));
#1044=DIRECTION('',(-1.,0.,0.));
#1045=DIRECTION('',(-1.,0.,0.));
#1046=DIRECTION('',(0.,-2.22044604925031E-16,1.));
#1047=DIRECTION('',(1.,0.,0.));
#1048=DIRECTION('',(0.,-2.22044604925031E-16,1.));
#1049=DIRECTION('',(1.,0.,0.));
#1050=DIRECTION('',(0.,2.22044604925031E-16,-1.));
#1051=DIRECTION('',(1.,0.,0.));
#1052=DIRECTION('',(0.,2.22044604925031E-16,-1.));
#1053=DIRECTION('',(-1.,0.,0.));
#1054=DIRECTION('center_axis',(0.,0.,1.));
#1055=DIRECTION('ref_axis',(-1.,0.,0.));
#1056=DIRECTION('',(0.,-1.,0.));
#1057=DIRECTION('',(0.,-1.,0.));
#1058=DIRECTION('',(-1.,0.,0.));
#1059=DIRECTION('center_axis',(-1.,0.,0.));
#1060=DIRECTION('ref_axis',(0.,0.,-1.));
#1061=DIRECTION('',(0.,2.22044604925031E-16,-1.));
#1062=DIRECTION('',(0.,-1.,0.));
#1063=DIRECTION('center_axis',(0.,0.,1.));
#1064=DIRECTION('ref_axis',(-1.,0.,0.));
#1065=DIRECTION('',(-1.,0.,0.));
#1066=DIRECTION('',(0.,-1.,0.));
#1067=DIRECTION('center_axis',(1.,0.,0.));
#1068=DIRECTION('ref_axis',(0.,0.,1.));
#1069=DIRECTION('',(0.,-2.22044604925031E-16,1.));
#1070=DIRECTION('',(0.,1.,0.));
#1071=DIRECTION('center_axis',(0.,0.,-1.));
#1072=DIRECTION('ref_axis',(1.,0.,0.));
#1073=DIRECTION('',(1.,0.,0.));
#1074=DIRECTION('',(0.,-1.,0.));
#1075=DIRECTION('',(0.,-1.,0.));
#1076=DIRECTION('center_axis',(-1.,0.,0.));
#1077=DIRECTION('ref_axis',(0.,0.,-1.));
#1078=DIRECTION('',(0.,2.22044604925031E-16,-1.));
#1079=DIRECTION('center_axis',(0.,0.,1.));
#1080=DIRECTION('ref_axis',(-1.,0.,0.));
#1081=DIRECTION('',(-1.,0.,0.));
#1082=DIRECTION('',(0.,-1.,0.));
#1083=DIRECTION('center_axis',(1.,0.,0.));
#1084=DIRECTION('ref_axis',(0.,0.,1.));
#1085=DIRECTION('',(0.,-2.22044604925031E-16,1.));
#1086=DIRECTION('center_axis',(0.,-1.,-2.22044604925031E-16));
#1087=DIRECTION('ref_axis',(-0.707106781186547,0.,0.707106781186547));
#1088=DIRECTION('center_axis',(0.,1.,2.22044604925031E-16));
#1089=DIRECTION('ref_axis',(-0.707106781186547,0.,0.707106781186547));
#1090=DIRECTION('',(0.,-1.,-2.22044604925031E-16));
#1091=DIRECTION('',(0.,1.,2.22044604925031E-16));
#1092=DIRECTION('center_axis',(-1.,0.,0.));
#1093=DIRECTION('ref_axis',(0.,2.22044604925031E-16,-1.));
#1094=DIRECTION('',(0.,-2.22044604925031E-16,1.));
#1095=DIRECTION('',(0.,1.,2.22044604925031E-16));
#1096=DIRECTION('center_axis',(0.,-1.,-2.22044604925031E-16));
#1097=DIRECTION('ref_axis',(-0.707106781186547,0.,-0.707106781186547));
#1098=DIRECTION('center_axis',(0.,1.,2.22044604925031E-16));
#1099=DIRECTION('ref_axis',(-0.707106781186547,0.,-0.707106781186547));
#1100=DIRECTION('',(0.,-1.,-2.22044604925031E-16));
#1101=DIRECTION('center_axis',(0.,2.22044604925031E-16,-1.));
#1102=DIRECTION('ref_axis',(1.,0.,0.));
#1103=DIRECTION('',(-1.,0.,0.));
#1104=DIRECTION('',(0.,1.,2.22044604925031E-16));
#1105=DIRECTION('center_axis',(0.,-1.,-2.22044604925031E-16));
#1106=DIRECTION('ref_axis',(0.707106781186547,0.,-0.707106781186547));
#1107=DIRECTION('center_axis',(0.,1.,2.22044604925031E-16));
#1108=DIRECTION('ref_axis',(0.707106781186547,0.,-0.707106781186547));
#1109=DIRECTION('',(0.,-1.,-2.22044604925031E-16));
#1110=DIRECTION('center_axis',(1.,0.,0.));
#1111=DIRECTION('ref_axis',(0.,-2.22044604925031E-16,1.));
#1112=DIRECTION('',(0.,2.22044604925031E-16,-1.));
#1113=DIRECTION('',(0.,1.,2.22044604925031E-16));
#1114=DIRECTION('center_axis',(0.,-1.,-2.22044604925031E-16));
#1115=DIRECTION('ref_axis',(0.707106781186547,0.,0.707106781186547));
#1116=DIRECTION('center_axis',(0.,1.,2.22044604925031E-16));
#1117=DIRECTION('ref_axis',(0.707106781186547,0.,0.707106781186547));
#1118=DIRECTION('',(0.,-1.,-2.22044604925031E-16));
#1119=DIRECTION('center_axis',(0.,-2.22044604925031E-16,1.));
#1120=DIRECTION('ref_axis',(-1.,0.,0.));
#1121=DIRECTION('',(1.,0.,0.));
#1122=DIRECTION('center_axis',(0.,-1.,-2.22044604925031E-16));
#1123=DIRECTION('ref_axis',(-0.707106781186547,0.,0.707106781186547));
#1124=DIRECTION('center_axis',(0.,1.,2.22044604925031E-16));
#1125=DIRECTION('ref_axis',(-0.707106781186547,0.,0.707106781186547));
#1126=DIRECTION('',(0.,1.,2.22044604925031E-16));
#1127=DIRECTION('center_axis',(0.,-1.,-2.22044604925031E-16));
#1128=DIRECTION('ref_axis',(-0.707106781186547,0.,0.707106781186547));
#1129=DIRECTION('',(0.,-1.,-2.22044604925031E-16));
#1130=DIRECTION('center_axis',(-1.,0.,0.));
#1131=DIRECTION('ref_axis',(0.,2.22044604925031E-16,-1.));
#1132=DIRECTION('',(0.,2.22044604925031E-16,-1.));
#1133=DIRECTION('',(0.,1.,2.22044604925031E-16));
#1134=DIRECTION('',(0.,2.22044604925031E-16,-1.));
#1135=DIRECTION('center_axis',(0.,-1.,-2.22044604925031E-16));
#1136=DIRECTION('ref_axis',(1.,0.,0.));
#1137=DIRECTION('',(-1.,0.,0.));
#1138=DIRECTION('center_axis',(0.,-1.,-2.22044604925031E-16));
#1139=DIRECTION('ref_axis',(0.707106781186547,0.,0.707106781186547));
#1140=DIRECTION('',(0.,-2.22044604925031E-16,1.));
#1141=DIRECTION('center_axis',(0.,-1.,-2.22044604925031E-16));
#1142=DIRECTION('ref_axis',(0.707106781186547,0.,-0.707106781186547));
#1143=DIRECTION('',(1.,0.,0.));
#1144=DIRECTION('center_axis',(0.,-1.,-2.22044604925031E-16));
#1145=DIRECTION('ref_axis',(-0.707106781186547,0.,-0.707106781186547));
#1146=DIRECTION('center_axis',(0.,-1.,-2.22044604925031E-16));
#1147=DIRECTION('ref_axis',(-0.707106781186547,0.,-0.707106781186547));
#1148=DIRECTION('center_axis',(0.,1.,2.22044604925031E-16));
#1149=DIRECTION('ref_axis',(-0.707106781186547,0.,-0.707106781186547));
#1150=DIRECTION('',(0.,-1.,-2.22044604925031E-16));
#1151=DIRECTION('center_axis',(0.,2.22044604925031E-16,-1.));
#1152=DIRECTION('ref_axis',(1.,0.,0.));
#1153=DIRECTION('',(0.,1.,2.22044604925031E-16));
#1154=DIRECTION('',(1.,0.,0.));
#1155=DIRECTION('center_axis',(0.,-1.,-2.22044604925031E-16));
#1156=DIRECTION('ref_axis',(0.707106781186547,0.,-0.707106781186547));
#1157=DIRECTION('center_axis',(0.,1.,2.22044604925031E-16));
#1158=DIRECTION('ref_axis',(0.707106781186547,0.,-0.707106781186547));
#1159=DIRECTION('',(0.,-1.,-2.22044604925031E-16));
#1160=DIRECTION('center_axis',(1.,0.,0.));
#1161=DIRECTION('ref_axis',(0.,-2.22044604925031E-16,1.));
#1162=DIRECTION('',(0.,1.,2.22044604925031E-16));
#1163=DIRECTION('',(0.,-2.22044604925031E-16,1.));
#1164=DIRECTION('center_axis',(0.,-1.,-2.22044604925031E-16));
#1165=DIRECTION('ref_axis',(0.707106781186547,0.,0.707106781186547));
#1166=DIRECTION('center_axis',(0.,1.,2.22044604925031E-16));
#1167=DIRECTION('ref_axis',(0.707106781186547,0.,0.707106781186547));
#1168=DIRECTION('',(0.,-1.,-2.22044604925031E-16));
#1169=DIRECTION('center_axis',(0.,-2.22044604925031E-16,1.));
#1170=DIRECTION('ref_axis',(-1.,0.,0.));
#1171=DIRECTION('',(-1.,0.,0.));
#1172=DIRECTION('center_axis',(0.,-1.,-2.22044604925031E-16));
#1173=DIRECTION('ref_axis',(1.,0.,0.));
#1174=CARTESIAN_POINT('',(0.,0.,0.));
#1175=CARTESIAN_POINT('Origin',(89.9870596362152,195.000002905726,68.0000004917383));
#1176=CARTESIAN_POINT('',(89.9870596362152,195.000002905726,68.0000004917383));
#1177=CARTESIAN_POINT('',(89.9870596362152,155.500002905726,68.0000004917383));
#1178=CARTESIAN_POINT('',(89.9870596362152,185.125002905726,68.0000004917383));
#1179=CARTESIAN_POINT('',(91.9870596362152,195.000002905726,68.0000004917383));
#1180=CARTESIAN_POINT('',(89.9870596362152,195.000002905726,68.0000004917383));
#1181=CARTESIAN_POINT('',(91.9870596362152,155.500002905726,68.0000004917383));
#1182=CARTESIAN_POINT('',(91.9870596362152,199.532590847178,68.0000004917383));
#1183=CARTESIAN_POINT('',(89.9870596362152,155.500002905726,68.0000004917383));
#1184=CARTESIAN_POINT('Origin',(89.9870596362152,175.250002905726,63.0000004917383));
#1185=CARTESIAN_POINT('',(89.9870596362152,155.500002905726,93.0000004917383));
#1186=CARTESIAN_POINT('',(89.9870596362152,155.500002905726,33.0000004917383));
#1187=CARTESIAN_POINT('',(89.9870596362152,195.000002905726,93.0000004917383));
#1188=CARTESIAN_POINT('',(89.9870596362152,155.500002905726,93.0000004917383));
#1189=CARTESIAN_POINT('',(89.9870596362152,195.000002905726,93.0000004917383));
#1190=CARTESIAN_POINT('Origin',(86.9870596362152,155.500002905726,33.0000004917383));
#1191=CARTESIAN_POINT('',(86.9870596362152,155.500002905726,33.0000004917383));
#1192=CARTESIAN_POINT('',(86.9870596362152,195.000002905726,33.0000004917383));
#1193=CARTESIAN_POINT('',(86.9870596362152,179.782590847178,33.0000004917383));
#1194=CARTESIAN_POINT('',(91.9870596362152,155.500002905726,33.0000004917383));
#1195=CARTESIAN_POINT('',(86.9870596362152,155.500002905726,33.0000004917383));
#1196=CARTESIAN_POINT('',(91.9870596362152,195.000002905726,33.0000004917383));
#1197=CARTESIAN_POINT('',(91.9870596362152,179.782590847178,33.0000004917383));
#1198=CARTESIAN_POINT('',(86.9870596362152,195.000002905726,33.0000004917383));
#1199=CARTESIAN_POINT('Origin',(86.9870596362152,155.500002905726,93.0000004917383));
#1200=CARTESIAN_POINT('',(86.9870596362152,155.500002905726,93.0000004917383));
#1201=CARTESIAN_POINT('',(86.9870596362152,155.500002905726,46.5000002458692));
#1202=CARTESIAN_POINT('',(86.9870596362152,155.500002905726,93.0000004917383));
#1203=CARTESIAN_POINT('',(91.9870596362152,155.500002905726,34.0000002458692));
#1204=CARTESIAN_POINT('Origin',(86.9870596362152,195.000002905726,93.0000004917383));
#1205=CARTESIAN_POINT('',(86.9870596362152,195.000002905726,93.0000004917383));
#1206=CARTESIAN_POINT('',(86.9870596362152,199.532590847178,93.0000004917383));
#1207=CARTESIAN_POINT('',(86.9870596362152,195.000002905726,93.0000004917383));
#1208=CARTESIAN_POINT('Origin',(86.9870596362152,195.000002905726,33.0000004917383));
#1209=CARTESIAN_POINT('',(86.9870596362152,195.000002905726,16.5000002458692));
#1210=CARTESIAN_POINT('',(91.9870596362152,195.000002905726,16.5000002458692));
#1211=CARTESIAN_POINT('Origin',(29.6502396222118,201.565178788629,51.0825434593332));
#1212=CARTESIAN_POINT('',(29.6502396222118,204.065178788629,42.5825434593332));
#1213=CARTESIAN_POINT('Origin',(29.6502396222118,204.065178788629,51.0825434593332));
#1214=CARTESIAN_POINT('',(29.6502396222118,199.065178788629,42.5825434593332));
#1215=CARTESIAN_POINT('',(29.6502396222118,201.565178788629,42.5825434593332));
#1216=CARTESIAN_POINT('Origin',(29.6502396222118,199.065178788629,51.0825434593332));
#1217=CARTESIAN_POINT('Origin',(74.2031044000294,201.565178788629,51.2156700056193));
#1218=CARTESIAN_POINT('',(74.2031044000294,204.065178788629,42.7156700056193));
#1219=CARTESIAN_POINT('Origin',(74.2031044000294,204.065178788629,51.2156700056193));
#1220=CARTESIAN_POINT('',(74.2031044000294,199.065178788629,42.7156700056193));
#1221=CARTESIAN_POINT('',(74.2031044000294,201.565178788629,42.7156700056193));
#1222=CARTESIAN_POINT('Origin',(74.2031044000294,199.065178788629,51.2156700056193));
#1223=CARTESIAN_POINT('Origin',(28.2260011175871,204.065178788629,72.0000010728836));
#1224=CARTESIAN_POINT('',(28.2260011175871,204.065178788629,72.0000010728836));
#1225=CARTESIAN_POINT('',(74.6260011175871,204.065178788629,72.0000010728836));
#1226=CARTESIAN_POINT('',(40.1065303769012,204.065178788629,72.0000010728836));
#1227=CARTESIAN_POINT('',(28.2260011175871,199.065178788629,72.0000010728836));
#1228=CARTESIAN_POINT('',(28.2260011175871,204.065178788629,72.0000010728836));
#1229=CARTESIAN_POINT('',(74.6260011175871,199.065178788629,72.0000010728836));
#1230=CARTESIAN_POINT('',(40.1065303769012,199.065178788629,72.0000010728836));
#1231=CARTESIAN_POINT('',(74.6260011175871,204.065178788629,72.0000010728836));
#1232=CARTESIAN_POINT('Origin',(28.2260011175871,204.065178788629,112.350001072884));
#1233=CARTESIAN_POINT('',(28.2260011175871,204.065178788629,112.350001072884));
#1234=CARTESIAN_POINT('',(28.2260011175871,204.065178788629,86.1750005364418));
#1235=CARTESIAN_POINT('',(28.2260011175871,199.065178788629,112.350001072884));
#1236=CARTESIAN_POINT('',(28.2260011175871,204.065178788629,112.350001072884));
#1237=CARTESIAN_POINT('',(28.2260011175871,199.065178788629,86.1750005364418));
#1238=CARTESIAN_POINT('Origin',(74.6260011175871,204.065178788629,112.350001072884));
#1239=CARTESIAN_POINT('',(74.6260011175871,204.065178788629,112.350001072884));
#1240=CARTESIAN_POINT('',(63.3065303769012,204.065178788629,112.350001072884));
#1241=CARTESIAN_POINT('',(74.6260011175871,199.065178788629,112.350001072884));
#1242=CARTESIAN_POINT('',(74.6260011175871,204.065178788629,112.350001072884));
#1243=CARTESIAN_POINT('',(63.3065303769012,199.065178788629,112.350001072884));
#1244=CARTESIAN_POINT('Origin',(74.6260011175871,204.065178788629,72.0000010728836));
#1245=CARTESIAN_POINT('',(74.6260011175871,204.065178788629,66.0000005364418));
#1246=CARTESIAN_POINT('',(74.6260011175871,199.065178788629,66.0000005364418));
#1247=CARTESIAN_POINT('Origin',(47.3891181525618,199.065178788629,14.867105323449));
#1248=CARTESIAN_POINT('',(47.3891181525618,199.065178788629,13.867105323449));
#1249=CARTESIAN_POINT('',(47.3891181525618,199.065178788629,14.867105323449));
#1250=CARTESIAN_POINT('',(47.3891181525618,199.065178788629,37.4335526617245));
#1251=CARTESIAN_POINT('',(47.3891181525618,184.065178788629,13.867105323449));
#1252=CARTESIAN_POINT('',(47.3891181525618,199.065178788629,13.867105323449));
#1253=CARTESIAN_POINT('',(47.3891181525618,184.065178788629,14.867105323449));
#1254=CARTESIAN_POINT('',(47.3891181525618,184.065178788629,13.867105323449));
#1255=CARTESIAN_POINT('',(47.3891181525618,199.065178788629,14.867105323449));
#1256=CARTESIAN_POINT('Origin',(56.3891181525618,199.065178788629,13.867105323449));
#1257=CARTESIAN_POINT('',(56.3891181525618,199.065178788629,14.867105323449));
#1258=CARTESIAN_POINT('',(56.3891181525618,199.065178788629,13.867105323449));
#1259=CARTESIAN_POINT('',(56.3891181525618,199.065178788629,36.9335526617245));
#1260=CARTESIAN_POINT('',(56.3891181525618,184.065178788629,14.867105323449));
#1261=CARTESIAN_POINT('',(56.3891181525618,199.065178788629,14.867105323449));
#1262=CARTESIAN_POINT('',(56.3891181525618,184.065178788629,13.867105323449));
#1263=CARTESIAN_POINT('',(56.3891181525618,184.065178788629,14.867105323449));
#1264=CARTESIAN_POINT('',(56.3891181525618,199.065178788629,13.867105323449));
#1265=CARTESIAN_POINT('Origin',(47.3891181525618,199.065178788629,13.867105323449));
#1266=CARTESIAN_POINT('',(49.6880888943885,199.065178788629,13.867105323449));
#1267=CARTESIAN_POINT('',(56.3891181525618,184.065178788629,13.867105323449));
#1268=CARTESIAN_POINT('Origin',(51.8891181525618,184.065178788629,14.367105323449));
#1269=CARTESIAN_POINT('',(47.3891181525618,184.065178788629,14.867105323449));
#1270=CARTESIAN_POINT('Origin',(51.9870596362152,199.065178788629,60.));
#1271=CARTESIAN_POINT('',(21.9870596362152,199.065178788629,115.));
#1272=CARTESIAN_POINT('',(16.9870596362152,199.065178788629,110.));
#1273=CARTESIAN_POINT('Origin',(21.9870596362152,199.065178788629,110.));
#1274=CARTESIAN_POINT('',(16.9870596362152,199.065178788629,9.99999999999998));
#1275=CARTESIAN_POINT('',(16.9870596362152,199.065178788629,90.));
#1276=CARTESIAN_POINT('',(21.9870596362152,199.065178788629,4.99999999999998));
#1277=CARTESIAN_POINT('Origin',(21.9870596362152,199.065178788629,9.99999999999998));
#1278=CARTESIAN_POINT('',(81.9870596362152,199.065178788629,4.99999999999998));
#1279=CARTESIAN_POINT('',(31.9870596362152,199.065178788629,4.99999999999998));
#1280=CARTESIAN_POINT('',(86.9870596362152,199.065178788629,9.99999999999998));
#1281=CARTESIAN_POINT('Origin',(81.9870596362152,199.065178788629,9.99999999999998));
#1282=CARTESIAN_POINT('',(86.9870596362152,199.065178788629,110.));
#1283=CARTESIAN_POINT('',(86.9870596362152,199.065178788629,30.));
#1284=CARTESIAN_POINT('',(81.9870596362152,199.065178788629,115.));
#1285=CARTESIAN_POINT('Origin',(81.9870596362152,199.065178788629,110.));
#1286=CARTESIAN_POINT('',(71.9870596362152,199.065178788629,115.));
#1287=CARTESIAN_POINT('',(43.088543515847,199.065178788629,14.867105323449));
#1288=CARTESIAN_POINT('',(47.5378015760311,199.065178788629,14.867105323449));
#1289=CARTESIAN_POINT('',(43.088543515847,199.065178788629,15.867105323449));
#1290=CARTESIAN_POINT('',(43.088543515847,199.065178788629,37.9335526617245));
#1291=CARTESIAN_POINT('',(47.3891181525618,199.065178788629,15.867105323449));
#1292=CARTESIAN_POINT('',(56.4378015760311,199.065178788629,15.867105323449));
#1293=CARTESIAN_POINT('',(47.3891181525618,199.065178788629,19.3689327966738));
#1294=CARTESIAN_POINT('',(47.3891181525618,199.065178788629,37.9344663983369));
#1295=CARTESIAN_POINT('',(56.3891181525618,199.065178788629,19.3689327966738));
#1296=CARTESIAN_POINT('',(54.1880888943885,199.065178788629,19.3689327966738));
#1297=CARTESIAN_POINT('',(56.3891181525618,199.065178788629,15.867105323449));
#1298=CARTESIAN_POINT('',(56.3891181525618,199.065178788629,37.9344663983369));
#1299=CARTESIAN_POINT('',(60.888543515847,199.065178788629,15.867105323449));
#1300=CARTESIAN_POINT('',(56.4378015760311,199.065178788629,15.867105323449));
#1301=CARTESIAN_POINT('',(60.888543515847,199.065178788629,14.867105323449));
#1302=CARTESIAN_POINT('',(60.888543515847,199.065178788629,37.4335526617245));
#1303=CARTESIAN_POINT('',(47.5378015760311,199.065178788629,14.867105323449));
#1304=CARTESIAN_POINT('Origin',(60.888543515847,204.065178788629,15.867105323449));
#1305=CARTESIAN_POINT('',(47.3891181525618,204.065178788629,15.867105323449));
#1306=CARTESIAN_POINT('',(47.3891181525618,201.565178788629,15.867105323449));
#1307=CARTESIAN_POINT('',(43.088543515847,204.065178788629,15.867105323449));
#1308=CARTESIAN_POINT('',(43.088543515847,204.065178788629,15.867105323449));
#1309=CARTESIAN_POINT('',(56.4378015760311,204.065178788629,15.867105323449));
#1310=CARTESIAN_POINT('Origin',(47.3891181525618,204.065178788629,19.3689327966738));
#1311=CARTESIAN_POINT('',(47.3891181525618,204.065178788629,19.3689327966738));
#1312=CARTESIAN_POINT('',(47.3891181525618,204.065178788629,37.9344663983369));
#1313=CARTESIAN_POINT('',(47.3891181525618,204.065178788629,19.3689327966738));
#1314=CARTESIAN_POINT('Origin',(56.3891181525618,204.065178788629,19.3689327966738));
#1315=CARTESIAN_POINT('',(56.3891181525618,204.065178788629,19.3689327966738));
#1316=CARTESIAN_POINT('',(54.1880888943885,204.065178788629,19.3689327966738));
#1317=CARTESIAN_POINT('',(56.3891181525618,204.065178788629,19.3689327966738));
#1318=CARTESIAN_POINT('Origin',(56.3891181525618,204.065178788629,15.8689327966738));
#1319=CARTESIAN_POINT('',(56.3891181525618,204.065178788629,15.867105323449));
#1320=CARTESIAN_POINT('',(56.3891181525618,204.065178788629,37.9344663983369));
#1321=CARTESIAN_POINT('',(56.3891181525618,204.065178788629,15.867105323449));
#1322=CARTESIAN_POINT('Origin',(43.088543515847,204.065178788629,14.867105323449));
#1323=CARTESIAN_POINT('',(43.088543515847,204.065178788629,14.867105323449));
#1324=CARTESIAN_POINT('',(60.888543515847,204.065178788629,14.867105323449));
#1325=CARTESIAN_POINT('',(47.5378015760311,204.065178788629,14.867105323449));
#1326=CARTESIAN_POINT('',(43.088543515847,204.065178788629,14.867105323449));
#1327=CARTESIAN_POINT('',(60.888543515847,204.065178788629,14.867105323449));
#1328=CARTESIAN_POINT('Origin',(43.088543515847,204.065178788629,15.867105323449));
#1329=CARTESIAN_POINT('',(43.088543515847,204.065178788629,37.9335526617245));
#1330=CARTESIAN_POINT('Origin',(60.888543515847,204.065178788629,15.867105323449));
#1331=CARTESIAN_POINT('',(60.888543515847,204.065178788629,15.867105323449));
#1332=CARTESIAN_POINT('',(56.4378015760311,204.065178788629,15.867105323449));
#1333=CARTESIAN_POINT('',(60.888543515847,204.065178788629,15.867105323449));
#1334=CARTESIAN_POINT('Origin',(60.888543515847,204.065178788629,14.867105323449));
#1335=CARTESIAN_POINT('',(60.888543515847,204.065178788629,37.4335526617245));
#1336=CARTESIAN_POINT('Origin',(21.9870596362152,204.065178788629,110.));
#1337=CARTESIAN_POINT('',(16.9870596362152,154.065178788629,110.));
#1338=CARTESIAN_POINT('',(21.9870596362152,154.065178788629,115.));
#1339=CARTESIAN_POINT('Origin',(21.9870596362152,154.065178788629,110.));
#1340=CARTESIAN_POINT('',(16.9870596362152,204.065178788629,110.));
#1341=CARTESIAN_POINT('',(21.9870596362152,204.065178788629,115.));
#1342=CARTESIAN_POINT('Origin',(16.9870596362152,204.065178788629,120.));
#1343=CARTESIAN_POINT('',(16.9870596362152,154.065178788629,9.99999999999997));
#1344=CARTESIAN_POINT('',(16.9870596362152,154.065178788629,90.));
#1345=CARTESIAN_POINT('',(16.9870596362152,204.065178788629,9.99999999999998));
#1346=CARTESIAN_POINT('Origin',(21.9870596362152,204.065178788629,9.99999999999998));
#1347=CARTESIAN_POINT('',(21.9870596362152,154.065178788629,4.99999999999997));
#1348=CARTESIAN_POINT('Origin',(21.9870596362152,154.065178788629,9.99999999999997));
#1349=CARTESIAN_POINT('',(21.9870596362152,204.065178788629,4.99999999999998));
#1350=CARTESIAN_POINT('Origin',(11.9870596362153,204.065178788629,4.99999999999998));
#1351=CARTESIAN_POINT('',(81.9870596362152,154.065178788629,4.99999999999997));
#1352=CARTESIAN_POINT('',(31.9870596362152,154.065178788629,4.99999999999997));
#1353=CARTESIAN_POINT('',(81.9870596362152,204.065178788629,4.99999999999998));
#1354=CARTESIAN_POINT('Origin',(81.9870596362152,204.065178788629,9.99999999999998));
#1355=CARTESIAN_POINT('',(86.9870596362152,154.065178788629,9.99999999999997));
#1356=CARTESIAN_POINT('Origin',(81.9870596362152,154.065178788629,9.99999999999997));
#1357=CARTESIAN_POINT('',(86.9870596362152,204.065178788629,9.99999999999998));
#1358=CARTESIAN_POINT('Origin',(86.9870596362152,204.065178788629,-1.77635683940025E-14));
#1359=CARTESIAN_POINT('',(86.9870596362152,154.065178788629,110.));
#1360=CARTESIAN_POINT('',(86.9870596362152,154.065178788629,30.));
#1361=CARTESIAN_POINT('',(86.9870596362152,204.065178788629,110.));
#1362=CARTESIAN_POINT('Origin',(81.9870596362152,204.065178788629,110.));
#1363=CARTESIAN_POINT('',(81.9870596362152,154.065178788629,115.));
#1364=CARTESIAN_POINT('Origin',(81.9870596362152,154.065178788629,110.));
#1365=CARTESIAN_POINT('',(81.9870596362152,204.065178788629,115.));
#1366=CARTESIAN_POINT('Origin',(91.9870596362152,204.065178788629,115.));
#1367=CARTESIAN_POINT('',(71.9870596362152,154.065178788629,115.));
#1368=CARTESIAN_POINT('Origin',(21.9870596362152,204.065178788629,110.));
#1369=CARTESIAN_POINT('',(11.9870596362153,154.065178788629,110.));
#1370=CARTESIAN_POINT('',(21.9870596362152,154.065178788629,120.));
#1371=CARTESIAN_POINT('Origin',(21.9870596362152,154.065178788629,110.));
#1372=CARTESIAN_POINT('',(21.9870596362152,204.065178788629,120.));
#1373=CARTESIAN_POINT('',(21.9870596362152,204.065178788629,120.));
#1374=CARTESIAN_POINT('',(11.9870596362153,204.065178788629,110.));
#1375=CARTESIAN_POINT('Origin',(21.9870596362152,204.065178788629,110.));
#1376=CARTESIAN_POINT('',(11.9870596362153,204.065178788629,110.));
#1377=CARTESIAN_POINT('Origin',(11.9870596362153,204.065178788629,120.));
#1378=CARTESIAN_POINT('',(11.9870596362153,204.065178788629,9.99999999999998));
#1379=CARTESIAN_POINT('',(11.9870596362153,204.065178788629,120.));
#1380=CARTESIAN_POINT('',(11.9870596362153,154.065178788629,9.99999999999996));
#1381=CARTESIAN_POINT('',(11.9870596362153,204.065178788629,9.99999999999998));
#1382=CARTESIAN_POINT('',(11.9870596362153,154.065178788629,120.));
#1383=CARTESIAN_POINT('Origin',(51.9870596362152,204.065178788629,60.));
#1384=CARTESIAN_POINT('',(81.9870596362152,204.065178788629,120.));
#1385=CARTESIAN_POINT('',(91.9870596362152,204.065178788629,120.));
#1386=CARTESIAN_POINT('',(91.9870596362152,204.065178788629,110.));
#1387=CARTESIAN_POINT('Origin',(81.9870596362152,204.065178788629,110.));
#1388=CARTESIAN_POINT('',(91.9870596362152,204.065178788629,9.99999999999998));
#1389=CARTESIAN_POINT('',(91.9870596362152,204.065178788629,-1.77635683940025E-14));
#1390=CARTESIAN_POINT('',(81.9870596362152,204.065178788629,-1.77635683940025E-14));
#1391=CARTESIAN_POINT('Origin',(81.9870596362152,204.065178788629,9.99999999999998));
#1392=CARTESIAN_POINT('',(21.9870596362152,204.065178788629,-1.77635683940025E-14));
#1393=CARTESIAN_POINT('',(11.9870596362153,204.065178788629,-1.77635683940025E-14));
#1394=CARTESIAN_POINT('Origin',(21.9870596362152,204.065178788629,9.99999999999998));
#1395=CARTESIAN_POINT('Origin',(21.9870596362152,204.065178788629,9.99999999999998));
#1396=CARTESIAN_POINT('',(21.9870596362152,154.065178788629,-3.5527136788005E-14));
#1397=CARTESIAN_POINT('Origin',(21.9870596362152,154.065178788629,9.99999999999997));
#1398=CARTESIAN_POINT('',(21.9870596362152,204.065178788629,-1.77635683940025E-14));
#1399=CARTESIAN_POINT('Origin',(11.9870596362153,204.065178788629,-1.77635683940025E-14));
#1400=CARTESIAN_POINT('',(81.9870596362152,154.065178788629,-3.5527136788005E-14));
#1401=CARTESIAN_POINT('',(81.9870596362152,204.065178788629,-1.77635683940025E-14));
#1402=CARTESIAN_POINT('',(11.9870596362153,154.065178788629,-3.5527136788005E-14));
#1403=CARTESIAN_POINT('Origin',(81.9870596362152,204.065178788629,9.99999999999998));
#1404=CARTESIAN_POINT('',(91.9870596362152,154.065178788629,9.99999999999997));
#1405=CARTESIAN_POINT('Origin',(81.9870596362152,154.065178788629,9.99999999999997));
#1406=CARTESIAN_POINT('',(91.9870596362152,204.065178788629,9.99999999999998));
#1407=CARTESIAN_POINT('Origin',(91.9870596362152,204.065178788629,-1.77635683940025E-14));
#1408=CARTESIAN_POINT('',(91.9870596362152,154.065178788629,110.));
#1409=CARTESIAN_POINT('',(91.9870596362152,204.065178788629,110.));
#1410=CARTESIAN_POINT('',(91.9870596362152,154.065178788629,-3.5527136788005E-14));
#1411=CARTESIAN_POINT('Origin',(81.9870596362152,204.065178788629,110.));
#1412=CARTESIAN_POINT('',(81.9870596362152,154.065178788629,120.));
#1413=CARTESIAN_POINT('Origin',(81.9870596362152,154.065178788629,110.));
#1414=CARTESIAN_POINT('',(81.9870596362152,204.065178788629,120.));
#1415=CARTESIAN_POINT('Origin',(91.9870596362152,204.065178788629,120.));
#1416=CARTESIAN_POINT('',(91.9870596362152,154.065178788629,120.));
#1417=CARTESIAN_POINT('Origin',(51.9870596362152,154.065178788629,60.));
#1418=UNCERTAINTY_MEASURE_WITH_UNIT(LENGTH_MEASURE(0.01),#1422,
'DISTANCE_ACCURACY_VALUE',
'Maximum model space distance between geometric entities at asserted c
onnectivities');
#1419=UNCERTAINTY_MEASURE_WITH_UNIT(LENGTH_MEASURE(0.01),#1422,
'DISTANCE_ACCURACY_VALUE',
'Maximum model space distance between geometric entities at asserted c
onnectivities');
#1420=(
GEOMETRIC_REPRESENTATION_CONTEXT(3)
GLOBAL_UNCERTAINTY_ASSIGNED_CONTEXT((#1418))
GLOBAL_UNIT_ASSIGNED_CONTEXT((#1422,#1424,#1425))
REPRESENTATION_CONTEXT('','3D')
);
#1421=(
GEOMETRIC_REPRESENTATION_CONTEXT(3)
GLOBAL_UNCERTAINTY_ASSIGNED_CONTEXT((#1419))
GLOBAL_UNIT_ASSIGNED_CONTEXT((#1422,#1424,#1425))
REPRESENTATION_CONTEXT('','3D')
);
#1422=(
LENGTH_UNIT()
NAMED_UNIT(*)
SI_UNIT(.MILLI.,.METRE.)
);
#1423=(
LENGTH_UNIT()
NAMED_UNIT(*)
SI_UNIT($,.METRE.)
);
#1424=(
NAMED_UNIT(*)
PLANE_ANGLE_UNIT()
SI_UNIT($,.RADIAN.)
);
#1425=(
NAMED_UNIT(*)
SI_UNIT($,.STERADIAN.)
SOLID_ANGLE_UNIT()
);
#1426=SHAPE_DEFINITION_REPRESENTATION(#1427,#1428);
#1427=PRODUCT_DEFINITION_SHAPE('',$,#1430);
#1428=SHAPE_REPRESENTATION('',(#882),#1420);
#1429=PRODUCT_DEFINITION_CONTEXT('part definition',#1434,'design');
#1430=PRODUCT_DEFINITION('Digital Library FRONT',
'Digital Library FRONT v7',#1431,#1429);
#1431=PRODUCT_DEFINITION_FORMATION('',$,#1436);
#1432=PRODUCT_RELATED_PRODUCT_CATEGORY('Digital Library FRONT v7',
'Digital Library FRONT v7',(#1436));
#1433=APPLICATION_PROTOCOL_DEFINITION('international standard',
'automotive_design',2009,#1434);
#1434=APPLICATION_CONTEXT(
'Core Data for Automotive Mechanical Design Process');
#1435=PRODUCT_CONTEXT('part definition',#1434,'mechanical');
#1436=PRODUCT('Digital Library FRONT','Digital Library FRONT v7',$,(#1435));
#1437=PRESENTATION_STYLE_ASSIGNMENT((#1438));
#1438=SURFACE_STYLE_USAGE(.BOTH.,#1439);
#1439=SURFACE_SIDE_STYLE('',(#1440));
#1440=SURFACE_STYLE_FILL_AREA(#1441);
#1441=FILL_AREA_STYLE('Steel - Satin',(#1442));
#1442=FILL_AREA_STYLE_COLOUR('Steel - Satin',#1443);
#1443=COLOUR_RGB('Steel - Satin',0.627450980392157,0.627450980392157,0.627450980392157);
ENDSEC;
END-ISO-10303-21;
